<svg xmlns="http://www.w3.org/2000/svg" viewBox="0 0 400 533" width="400" height="533">
  <defs>
    <linearGradient id="bg9" x1="0%" y1="0%" x2="100%" y2="100%">
      <stop offset="0%" style="stop-color:#374151"/>
      <stop offset="100%" style="stop-color:#1F2937"/>
    </linearGradient>
  </defs>
  <!-- Background -->
  <rect width="400" height="533" fill="url(#bg9)"/>
  <!-- Subtle accent bar -->
  <rect x="0" y="0" width="6" height="533" fill="rgba(59,130,246,0.5)"/>
  <!-- Border frame -->
  <rect x="16" y="16" width="368" height="501" rx="4" fill="none" stroke="rgba(255,255,255,0.15)" stroke-width="1.5"/>
  <!-- Top brand -->
  <text x="200" y="50" text-anchor="middle" font-family="Arial, Helvetica, sans-serif" font-size="10" font-weight="600" letter-spacing="3" fill="rgba(255,255,255,0.5)">RUBI DIGITAL DOWNLOADS</text>
  <!-- Building/apartment icon -->
  <rect x="150" y="90" width="100" height="140" rx="3" fill="none" stroke="rgba(255,255,255,0.25)" stroke-width="2"/>
  <!-- Windows grid -->
  <rect x="162" y="105" width="16" height="14" rx="1" fill="rgba(59,130,246,0.2)" stroke="rgba(255,255,255,0.15)" stroke-width="1"/>
  <rect x="192" y="105" width="16" height="14" rx="1" fill="rgba(59,130,246,0.2)" stroke="rgba(255,255,255,0.15)" stroke-width="1"/>
  <rect x="222" y="105" width="16" height="14" rx="1" fill="rgba(59,130,246,0.2)" stroke="rgba(255,255,255,0.15)" stroke-width="1"/>
  <rect x="162" y="130" width="16" height="14" rx="1" fill="rgba(59,130,246,0.15)" stroke="rgba(255,255,255,0.15)" stroke-width="1"/>
  <rect x="192" y="130" width="16" height="14" rx="1" fill="rgba(245,158,11,0.25)" stroke="rgba(255,255,255,0.15)" stroke-width="1"/>
  <rect x="222" y="130" width="16" height="14" rx="1" fill="rgba(59,130,246,0.15)" stroke="rgba(255,255,255,0.15)" stroke-width="1"/>
  <rect x="162" y="155" width="16" height="14" rx="1" fill="rgba(59,130,246,0.2)" stroke="rgba(255,255,255,0.15)" stroke-width="1"/>
  <rect x="192" y="155" width="16" height="14" rx="1" fill="rgba(59,130,246,0.15)" stroke="rgba(255,255,255,0.15)" stroke-width="1"/>
  <rect x="222" y="155" width="16" height="14" rx="1" fill="rgba(245,158,11,0.2)" stroke="rgba(255,255,255,0.15)" stroke-width="1"/>
  <rect x="162" y="180" width="16" height="14" rx="1" fill="rgba(245,158,11,0.2)" stroke="rgba(255,255,255,0.15)" stroke-width="1"/>
  <rect x="192" y="180" width="16" height="14" rx="1" fill="rgba(59,130,246,0.2)" stroke="rgba(255,255,255,0.15)" stroke-width="1"/>
  <rect x="222" y="180" width="16" height="14" rx="1" fill="rgba(59,130,246,0.15)" stroke="rgba(255,255,255,0.15)" stroke-width="1"/>
  <!-- Door -->
  <rect x="187" y="205" width="26" height="25" rx="2" fill="none" stroke="rgba(255,255,255,0.2)" stroke-width="1.5"/>
  <!-- Key icon -->
  <g transform="translate(200,255) scale(0.7)">
    <circle cx="-15" cy="0" r="10" fill="none" stroke="rgba(59,130,246,0.4)" stroke-width="2"/>
    <line x1="-5" y1="0" x2="20" y2="0" stroke="rgba(59,130,246,0.4)" stroke-width="2"/>
    <line x1="15" y1="0" x2="15" y2="7" stroke="rgba(59,130,246,0.4)" stroke-width="2"/>
    <line x1="10" y1="0" x2="10" y2="5" stroke="rgba(59,130,246,0.4)" stroke-width="2"/>
  </g>
  <!-- Decorative line -->
  <line x1="80" y1="285" x2="320" y2="285" stroke="rgba(255,255,255,0.2)" stroke-width="1"/>
  <!-- Title -->
  <text x="200" y="325" text-anchor="middle" font-family="Georgia, 'Times New Roman', serif" font-size="26" font-weight="700" fill="#FFFFFF">Landlording</text>
  <text x="200" y="358" text-anchor="middle" font-family="Georgia, 'Times New Roman', serif" font-size="26" font-weight="700" fill="#FFFFFF">for Beginners</text>
  <!-- Subtitle -->
  <text x="200" y="395" text-anchor="middle" font-family="Arial, Helvetica, sans-serif" font-size="13" font-style="italic" fill="rgba(255,255,255,0.6)">Real Estate Investment Guide</text>
  <!-- Decorative line below subtitle -->
  <line x1="120" y1="410" x2="280" y2="410" stroke="rgba(255,255,255,0.2)" stroke-width="1"/>
  <!-- Author -->
  <text x="200" y="455" text-anchor="middle" font-family="Arial, Helvetica, sans-serif" font-size="12" fill="rgba(255,255,255,0.7)">By James Villarrubia</text>
  <!-- Instant Download badge -->
  <rect x="260" y="68" width="110" height="24" rx="12" fill="rgba(59,130,246,0.25)" stroke="rgba(59,130,246,0.5)" stroke-width="1"/>
  <text x="315" y="84" text-anchor="middle" font-family="Arial, Helvetica, sans-serif" font-size="9" font-weight="700" letter-spacing="1" fill="#FFFFFF">INSTANT DOWNLOAD</text>
</svg>