<svg xmlns="http://www.w3.org/2000/svg" viewBox="0 0 400 533" width="400" height="533">
  <defs>
    <linearGradient id="bg2" x1="0%" y1="0%" x2="100%" y2="100%">
      <stop offset="0%" style="stop-color:#EA580C"/>
      <stop offset="60%" style="stop-color:#C2410C"/>
      <stop offset="100%" style="stop-color:#FEF3C7"/>
    </linearGradient>
  </defs>
  <!-- Background -->
  <rect width="400" height="533" fill="url(#bg2)"/>
  <!-- Cream accent panel -->
  <rect x="0" y="0" width="400" height="533" fill="rgba(254,243,199,0.1)"/>
  <!-- Border frame -->
  <rect x="16" y="16" width="368" height="501" rx="4" fill="none" stroke="rgba(255,255,255,0.25)" stroke-width="1.5"/>
  <!-- Top brand -->
  <text x="200" y="50" text-anchor="middle" font-family="Arial, Helvetica, sans-serif" font-size="10" font-weight="600" letter-spacing="3" fill="rgba(255,255,255,0.7)">RUBI DIGITAL DOWNLOADS</text>
  <!-- Geometric decorations - ascending bars -->
  <rect x="120" y="200" width="20" height="40" rx="2" fill="rgba(255,255,255,0.15)"/>
  <rect x="150" y="180" width="20" height="60" rx="2" fill="rgba(255,255,255,0.2)"/>
  <rect x="180" y="155" width="20" height="85" rx="2" fill="rgba(255,255,255,0.25)"/>
  <rect x="210" y="130" width="20" height="110" rx="2" fill="rgba(255,255,255,0.3)"/>
  <rect x="240" y="105" width="20" height="135" rx="2" fill="rgba(255,255,255,0.25)"/>
  <rect x="270" y="85" width="20" height="155" rx="2" fill="rgba(255,255,255,0.2)"/>
  <!-- Arrow pointing up -->
  <polygon points="200,75 215,100 185,100" fill="rgba(255,255,255,0.3)"/>
  <!-- Decorative line -->
  <line x1="80" y1="270" x2="320" y2="270" stroke="rgba(255,255,255,0.4)" stroke-width="1"/>
  <!-- Title -->
  <text x="200" y="310" text-anchor="middle" font-family="Georgia, 'Times New Roman', serif" font-size="30" font-weight="700" fill="#FFFFFF">Next-Level</text>
  <text x="200" y="348" text-anchor="middle" font-family="Georgia, 'Times New Roman', serif" font-size="30" font-weight="700" fill="#FFFFFF">Wealth</text>
  <!-- Subtitle -->
  <text x="200" y="390" text-anchor="middle" font-family="Arial, Helvetica, sans-serif" font-size="13" font-style="italic" fill="rgba(255,255,255,0.75)">Generational Wealth Series</text>
  <!-- Decorative line below subtitle -->
  <line x1="130" y1="405" x2="270" y2="405" stroke="rgba(255,255,255,0.3)" stroke-width="1"/>
  <!-- Author -->
  <text x="200" y="455" text-anchor="middle" font-family="Arial, Helvetica, sans-serif" font-size="12" fill="rgba(255,255,255,0.8)">By James Villarrubia</text>
  <!-- Instant Download badge -->
  <rect x="260" y="68" width="110" height="24" rx="12" fill="rgba(255,255,255,0.2)" stroke="rgba(255,255,255,0.4)" stroke-width="1"/>
  <text x="315" y="84" text-anchor="middle" font-family="Arial, Helvetica, sans-serif" font-size="9" font-weight="700" letter-spacing="1" fill="#FFFFFF">INSTANT DOWNLOAD</text>
</svg>